<svg width="19" height="26" viewBox="0 0 27 27" fill="none" xmlns="http://www.w3.org/2000/svg">
<path d="M20.6045 21.5845L21.4846 20.7224C25.5566 20.8536 25.6192 20.7128 25.7982 20.3L26.9169 17.6145L27 17.3599L26.9091 17.1371C26.8611 17.0195 26.7135 16.6685 24.1709 14.278V13.0205C27.1046 10.2337 27.042 10.091 26.8748 9.6831L25.761 6.96956C25.5938 6.56262 25.5302 6.40351 21.4875 6.51248L20.6074 5.61568C20.6983 4.29469 20.6521 2.968 20.4695 1.65626L20.3561 1.40265L17.4478 0.149061C17.0195 -0.0437992 16.8689 -0.113229 14.1229 2.8356L12.8888 2.81728C10.0617 -0.158551 9.92771 -0.10455 9.50427 0.0642024L6.80036 1.14229C6.37693 1.31104 6.22731 1.37083 6.3916 5.42089L5.51833 6.27912C1.44828 6.14797 1.38569 6.29069 1.20869 6.70148L0.0880117 9.38802L0 9.64549L0.0919233 9.86921C0.139841 9.98493 0.281638 10.3321 2.83006 12.7255V13.9791C-0.103658 16.7659 -0.0400941 16.9086 0.128106 17.3175L1.24096 20.0339C1.41112 20.4495 1.47175 20.5971 5.51344 20.4929L6.39355 21.3945C6.30233 22.7135 6.34722 24.0382 6.52753 25.3482L6.64096 25.6037L9.56784 26.865C9.99323 27.0405 10.1409 27.1032 12.879 24.165L14.1131 24.1804C16.9442 27.1601 17.0889 27.1022 17.5026 26.9373L20.2006 25.8621C20.627 25.6953 20.7756 25.6365 20.6045 21.5845ZM9.00848 15.2934C8.66724 14.414 8.59698 13.4548 8.80652 12.5362C9.01606 11.6176 9.49606 10.7805 10.1863 10.1298C10.8765 9.47923 11.7462 9.04412 12.6863 8.8791C13.6264 8.71409 14.595 8.82653 15.4705 9.20231C16.346 9.57809 17.0895 10.2005 17.6076 10.9914C18.1257 11.7822 18.3954 12.7064 18.3829 13.6479C18.3704 14.5894 18.0761 15.5063 17.5371 16.2835C16.9981 17.0607 16.2383 17.6636 15.3531 18.0166C14.1453 18.4823 12.7996 18.4573 11.6106 17.9469C10.4215 17.4365 9.48585 16.4824 9.00848 15.2934Z" fill="black"/>
</svg>
