<svg width="19" height="26" viewBox="0 0 27 27" fill="none" xmlns="http://www.w3.org/2000/svg">
<path d="M27 13.5C27 20.9575 20.9553 27 13.5 27C6.04468 27 0 20.9575 0 13.5C0 6.04686 6.04468 0 13.5 0C20.9553 0 27 6.04686 27 13.5ZM13.8623 4.46371C10.8957 4.46371 9.00363 5.71339 7.51787 7.93441C7.32538 8.22215 7.38978 8.61022 7.66566 8.81942L9.55452 10.2516C9.83785 10.4665 10.2415 10.4154 10.4617 10.1361C11.4341 8.90271 12.1009 8.18748 13.581 8.18748C14.6931 8.18748 16.0686 8.9032 16.0686 9.98156C16.0686 10.7968 15.3956 11.2155 14.2976 11.8311C13.017 12.5489 11.3226 13.4424 11.3226 15.6774V15.8952C11.3226 16.2559 11.6151 16.5484 11.9758 16.5484H15.0242C15.3849 16.5484 15.6774 16.2559 15.6774 15.8952V15.8226C15.6774 14.2733 20.2057 14.2087 20.2057 10.0161C20.2057 6.85876 16.9306 4.46371 13.8623 4.46371ZM13.5 17.9637C12.1192 17.9637 10.996 19.087 10.996 20.4677C10.996 21.8484 12.1192 22.9718 13.5 22.9718C14.8808 22.9718 16.004 21.8484 16.004 20.4677C16.004 19.087 14.8808 17.9637 13.5 17.9637Z" fill="black"/>
</svg>
