<?xml version="1.0" encoding="UTF-8"?>
<svg width="19" id="Capa_1" data-name="Capa 1" xmlns="http://www.w3.org/2000/svg" viewBox="0 0 186.98 206.24">
  <path d="M147.14,155.78c-8.53,6.71-13.99,16.99-24.73,21.1-5.11,2.34-10.81,2.16-16.09,3.77-2.35,1.22-4.59,2.86-7.08,3.57-5.01,1.42-10.21,1.26-14.12-2.52-3.71-3.6-6.41-8.86-3.79-13.51,4.45-7.92,5.95-16.5,8.29-24.96.76-2.75,2.56-5.51,4.61-7.56,19.64-19.68,39.34-39.3,59.23-58.73,7.07-6.91,7.74-17.97.59-25.23-15.12-15.37-30.35-30.64-45.61-45.86C105.36,2.78,101.98.04,97.23.05,69.87.09,42.51-.23,15.16.36,6.29.54.11,5.91.09,15.61,0,73.78-.06,131.96.12,190.13c.03,9.61,6.16,15.89,15.56,15.94,42.37.23,84.75.21,127.12,0,7.72-.04,14.5-4.56,15.03-11.98,1.13-15.93.35-31.99.35-49.33-4.49,4.54-7.44,8.18-11.03,11.01ZM95.36,17.9c14.92,15.63,29.29,30.67,43.23,45.27-10.11,0-22.6.12-35.09-.06-5.12-.07-8.01-3.22-8.08-8.24-.17-12.18-.06-24.37-.06-36.97ZM55.34,150.4c-5.63.3-11.3.07-16.95.07,0-.02,0-.04,0-.06-4.98,0-9.98.19-14.95-.05-4.82-.23-7.24-3.52-7.26-7.88-.02-4.4,2.34-7.62,7.31-7.67,10.64-.09,21.27-.1,31.91-.03,4.73.03,7.78,2.88,7.93,7.24.16,4.82-2.93,8.11-7.99,8.38ZM76.77,118.82c-16.67-.18-33.34-.17-50.01,0-5.69.06-10.47-1.25-10.54-7.66-.07-6.95,4.97-8.44,11.03-8.29,8,.2,16,.05,24,.05,8.34,0,16.68.18,25-.06,5.81-.17,10.37,1.74,10.58,7.8.21,6.14-4.14,8.22-10.07,8.16Z" style="fill: #1d1d1b; stroke-width: 0px;"/>
  <path d="M181.89,79.72c-5.9.96-12.69-.8-17.67,4.65-5.13,5.62-10.88,10.67-16.24,16.09-13.29,13.43-13.18,13.36.67,25.77,3.64,3.26,6.29,3.89,9.91.04,6.13-6.53,12.38-12.99,19.06-18.93,6.09-5.41,9.46-11.7,9.08-20.05,1.1-4.07-1-8.19-4.8-7.57Z" style="fill: #1d1d1b; stroke-width: 0px;"/>
  <path d="M124.05,124.41c-13.65,11.77-26.46,24.04-28.34,43.68-.21,2.58.92,4.56,4.58,3.17,11.92-4.51,23.64-8.36,32.46-19.16,11.39-13.94,12.03-15.88-2.79-26.52-.54-.39-1.01-.88-1.6-1.17-1.41-.7-2.53-1.53-4.31,0Z" style="fill: #1d1d1b; stroke-width: 0px;"/>
</svg>