<svg width="99" height="79" viewBox="0 0 99 79" fill="none" xmlns="http://www.w3.org/2000/svg">
<g clip-path="url(#clip0_263_236)">
<path d="M42.2686 79C59.9493 79 74.2823 64.6201 74.2823 46.8816C74.2823 29.1431 59.9493 14.7632 42.2686 14.7632C24.5879 14.7632 10.2549 29.1431 10.2549 46.8816C10.2549 64.6201 24.5879 79 42.2686 79Z" fill="#2F4A9A"/>
<path opacity="0.7" d="M33.2244 64.4779C47.3356 64.4779 58.7749 53.0012 58.7749 38.8438C58.7749 24.6865 47.3356 13.2097 33.2244 13.2097C19.1132 13.2097 7.67383 24.6865 7.67383 38.8438C7.67383 53.0012 19.1132 64.4779 33.2244 64.4779Z" fill="#794794"/>
<path d="M2.17882 49.3382C3.38215 49.3382 4.35764 48.3595 4.35764 47.1523C4.35764 45.945 3.38215 44.9663 2.17882 44.9663C0.975491 44.9663 0 45.945 0 47.1523C0 48.3595 0.975491 49.3382 2.17882 49.3382Z" fill="#794794"/>
<path d="M11.9997 77.4791C13.5415 77.4791 14.7914 76.2251 14.7914 74.6783C14.7914 73.1314 13.5415 71.8774 11.9997 71.8774C10.4579 71.8774 9.20801 73.1314 9.20801 74.6783C9.20801 76.2251 10.4579 77.4791 11.9997 77.4791Z" fill="#F9B233"/>
<path d="M83.182 56.0254C84.5441 56.0254 85.6482 54.9177 85.6482 53.5512C85.6482 52.1847 84.5441 51.0769 83.182 51.0769C81.82 51.0769 80.7158 52.1847 80.7158 53.5512C80.7158 54.9177 81.82 56.0254 83.182 56.0254Z" fill="#E86562"/>
<path d="M93.6106 49.4559C96.5873 49.4559 99.0004 47.0348 99.0004 44.0484C99.0004 41.0619 96.5873 38.6409 93.6106 38.6409C90.6338 38.6409 88.2207 41.0619 88.2207 44.0484C88.2207 47.0348 90.6338 49.4559 93.6106 49.4559Z" fill="#2F4B9A"/>
<path d="M50.2888 9.70877C52.961 9.70877 55.1273 7.53539 55.1273 4.85439C55.1273 2.17338 52.961 0 50.2888 0C47.6165 0 45.4502 2.17338 45.4502 4.85439C45.4502 7.53539 47.6165 9.70877 50.2888 9.70877Z" fill="#E86562"/>
<path opacity="0.7" d="M63.274 53.7659C74.4376 53.7659 83.4875 44.6865 83.4875 33.4864C83.4875 22.2863 74.4376 13.2068 63.274 13.2068C52.1104 13.2068 43.0605 22.2863 43.0605 33.4864C43.0605 44.6865 52.1104 53.7659 63.274 53.7659Z" fill="#F9B333"/>
<path opacity="0.7" d="M58.1005 78.1086C68.2988 78.1086 76.5662 69.8142 76.5662 59.5825C76.5662 49.3508 68.2988 41.0564 58.1005 41.0564C47.9022 41.0564 39.6348 49.3508 39.6348 59.5825C39.6348 69.8142 47.9022 78.1086 58.1005 78.1086Z" fill="#E86562"/>
<path d="M59.7547 29.7942H25.5094C24.5798 29.7942 23.8174 30.6709 23.8174 31.7418V54.7752C23.8174 55.8461 24.5798 56.7228 25.5094 56.7228H59.7547C60.6843 56.7228 61.4468 55.8461 61.4468 54.7752V31.7418C61.4468 30.6709 60.6843 29.7942 59.7547 29.7942ZM41.9987 55.749C41.377 55.749 40.8726 55.2783 40.8726 54.6957C40.8726 54.1132 41.377 53.6425 41.9987 53.6425C42.6203 53.6425 43.1247 54.1132 43.1247 54.6957C43.1247 55.2783 42.6203 55.749 41.9987 55.749ZM59.7547 51.2065C59.7547 52.2774 58.9923 53.1541 58.0627 53.1541H26.917C25.9874 53.1541 25.225 52.2774 25.225 51.2065V33.5247C25.225 32.4538 25.9874 31.5771 26.917 31.5771H58.0627C58.9923 31.5771 59.7547 32.4538 59.7547 33.5247V51.2065Z" fill="white"/>
<path d="M52.8665 60.1031H48.3476L46.5998 57.2935H37.0693L35.5884 60.1031H31.1751C29.8877 60.1031 28.835 60.6533 28.835 61.3241C28.835 61.4006 28.8496 61.4771 28.8789 61.5506H55.1597C55.1861 61.4771 55.2037 61.4006 55.2037 61.3241C55.2037 60.6533 54.1509 60.1031 52.8636 60.1031H52.8665Z" fill="white"/>
<path d="M57.7581 63.3628H26.7708L23.3896 67.0904L59.3856 67.0816L57.7581 63.3599V63.3628ZM54.9488 64.2925H56.1951L56.3887 64.9515L54.5969 64.928L54.9488 64.2925ZM52.251 64.2925H53.4973L53.6908 64.9515L51.8991 64.928L52.251 64.2925ZM49.7378 64.2925H50.9841L51.1777 64.9515L49.3859 64.928L49.7378 64.2925ZM47.04 64.2925H48.2863L48.4798 64.9515L46.6881 64.928L47.04 64.2925ZM44.6002 64.2925H45.8465L46.04 64.9515L44.2483 64.928L44.6002 64.2925ZM42.1897 64.2925H43.436L43.6295 64.9515L41.8378 64.928L42.1897 64.2925ZM39.9405 64.2925H41.1868L41.3803 64.9515L39.5886 64.928L39.9405 64.2925ZM37.184 64.2925H38.4303L38.6238 64.9515L36.8321 64.928L37.184 64.2925ZM34.4861 64.2925H35.7324L35.9259 64.9515L34.1342 64.928L34.4861 64.2925ZM32.0463 64.2925H33.2926L33.4861 64.9515L31.6944 64.928L32.0463 64.2925ZM29.6358 64.2925H30.8821L31.0756 64.9515L29.2839 64.928L29.6358 64.2925ZM27.3866 64.2925H28.6329L28.8264 64.9515L27.0347 64.928L27.3866 64.2925ZM25.6242 66.1401L25.9761 65.5046H27.2224L27.4159 66.1636L25.6242 66.1401ZM27.8734 66.1401L28.2253 65.5046H29.4716L29.6651 66.1636L27.8734 66.1401ZM30.2839 66.1401L30.6358 65.5046H31.8821L32.0756 66.1636L30.2839 66.1401ZM32.7237 66.1401L33.0756 65.5046H34.3219L34.5154 66.1636L32.7237 66.1401ZM35.4215 66.1401L35.7734 65.5046H37.0197L37.2133 66.1636L35.4215 66.1401ZM38.0226 66.1401L38.3745 65.5046H39.6208L39.8144 66.1636L38.0226 66.1401ZM40.2718 66.1401L40.6237 65.5046H41.87L42.0636 66.1636L40.2718 66.1401ZM42.6823 66.1401L43.0342 65.5046H44.2805L44.4741 66.1636L42.6823 66.1401ZM45.1221 66.1401L45.474 65.5046H46.7203L46.9139 66.1636L45.1221 66.1401ZM47.82 66.1401L48.1719 65.5046H49.4182L49.6117 66.1636L47.82 66.1401ZM50.6029 66.1401L50.9548 65.5046H52.2011L52.3947 66.1636L50.6029 66.1401ZM53.0427 66.1401L53.3946 65.5046H54.6409L54.8345 66.1636L53.0427 66.1401ZM55.7406 66.1401L56.0925 65.5046H57.3388L57.5323 66.1636L55.7406 66.1401Z" fill="white"/>
</g>
<defs>
<clipPath id="clip0_263_236">
<rect width="99" height="79" fill="white"/>
</clipPath>
</defs>
</svg>
